<svg width="512" height="512" xmlns="http://www.w3.org/2000/svg" class="svg-inline--fa fa-bomb fa-w-16">

 <g>
  <title>background</title>
  <rect fill="none" id="canvas_background" height="402" width="582" y="-1" x="-1"/>
 </g>
 <g>
  <title>Layer 1</title>
  <path stroke="null" id="svg_1" d="m388.609375,135.64532l-37.375,37.375l19.046875,19.046875c6.75625,6.75625 6.75625,17.68125 0,24.365625l-12.50625,12.50625c8.48125,18.759375 13.225,39.603125 13.225,61.525c0,82.584375 -66.915625,149.5 -149.5,149.5s-149.5,-66.84375 -149.5,-149.428125s66.915625,-149.5 149.5,-149.5c21.921875,0 42.765625,4.74375 61.525,13.225l12.50625,-12.50625c6.75625,-6.75625 17.68125,-6.75625 24.365625,0l19.046875,19.046875l37.375,-37.375l12.290625,12.21875zm42.765625,-20.484375l-17.25,0c-4.74375,0 -8.625,3.88125 -8.625,8.625s3.88125,8.625 8.625,8.625l17.25,0c4.74375,0 8.625,-3.88125 8.625,-8.625s-3.88125,-8.625 -8.625,-8.625zm-43.125,-43.125c-4.74375,0 -8.625,3.88125 -8.625,8.625l0,17.25c0,4.74375 3.88125,8.625 8.625,8.625s8.625,-3.88125 8.625,-8.625l0,-17.25c0,-4.74375 -3.88125,-8.625 -8.625,-8.625zm24.365625,39.53125l12.21875,-12.21875c3.378125,-3.378125 3.378125,-8.840625 0,-12.21875c-3.378125,-3.378125 -8.840625,-3.378125 -12.21875,0l-12.21875,12.21875c-3.378125,3.378125 -3.378125,8.840625 0,12.21875c3.45,3.378125 8.9125,3.378125 12.21875,0zm-48.73125,0c3.378125,3.378125 8.840625,3.378125 12.21875,0c3.378125,-3.378125 3.378125,-8.840625 0,-12.21875l-12.21875,-12.21875c-3.378125,-3.378125 -8.840625,-3.378125 -12.21875,0c-3.378125,3.378125 -3.378125,8.840625 0,12.21875l12.21875,12.21875zm48.73125,24.4375c-3.378125,-3.378125 -8.840625,-3.378125 -12.21875,0c-3.378125,3.378125 -3.378125,8.840625 0,12.21875l12.21875,12.21875c3.378125,3.378125 8.840625,3.378125 12.21875,0c3.378125,-3.378125 3.378125,-8.840625 0,-12.21875l-12.21875,-12.21875zm-260.115625,131.53125c0,-25.371875 20.628125,-46 46,-46c6.325,0 11.5,-5.175 11.5,-11.5s-5.175,-11.5 -11.5,-11.5c-38.021875,0 -69,30.978125 -69,69c0,6.325 5.175,11.5 11.5,11.5s11.5,-5.175 11.5,-11.5z" fill="currentColor"/>
 </g>
</svg>