<svg width="512" height="512" xmlns="http://www.w3.org/2000/svg" class="svg-inline--fa fa-film fa-w-16">

 <g>
  <title>background</title>
  <rect fill="none" id="canvas_background" height="402" width="582" y="-1" x="-1"/>
 </g>
 <g>
  <title>Layer 1</title>
  <path stroke="null" id="svg_1" d="m429.031675,112.801369l-5.966609,0l0,14.916524c0,4.922453 -4.027461,8.949914 -8.949914,8.949914l-29.833047,0c-4.922453,0 -8.949914,-4.027461 -8.949914,-8.949914l0,-14.916524l-238.664379,0l0,14.916524c0,4.922453 -4.027461,8.949914 -8.949914,8.949914l-29.833047,0c-4.922453,0 -8.949914,-4.027461 -8.949914,-8.949914l0,-14.916524l-5.966609,0c-9.919488,0 -17.899828,7.98034 -17.899828,17.899828l0,250.597598c0,9.919488 7.98034,17.899828 17.899828,17.899828l5.966609,0l0,-14.916524c0,-4.922453 4.027461,-8.949914 8.949914,-8.949914l29.833047,0c4.922453,0 8.949914,4.027461 8.949914,8.949914l0,14.916524l238.664379,0l0,-14.916524c0,-4.922453 4.027461,-8.949914 8.949914,-8.949914l29.833047,0c4.922453,0 8.949914,4.027461 8.949914,8.949914l0,14.916524l5.966609,0c9.919488,0 17.899828,-7.98034 17.899828,-17.899828l0,-250.597598c0,-9.919488 -7.98034,-17.899828 -17.899828,-17.899828zm-292.363864,229.714465c0,4.922453 -4.027461,8.949914 -8.949914,8.949914l-29.833047,0c-4.922453,0 -8.949914,-4.027461 -8.949914,-8.949914l0,-29.833047c0,-4.922453 4.027461,-8.949914 8.949914,-8.949914l29.833047,0c4.922453,0 8.949914,4.027461 8.949914,8.949914l0,29.833047zm0,-71.599314c0,4.922453 -4.027461,8.949914 -8.949914,8.949914l-29.833047,0c-4.922453,0 -8.949914,-4.027461 -8.949914,-8.949914l0,-29.833047c0,-4.922453 4.027461,-8.949914 8.949914,-8.949914l29.833047,0c4.922453,0 8.949914,4.027461 8.949914,8.949914l0,29.833047zm0,-71.599314c0,4.922453 -4.027461,8.949914 -8.949914,8.949914l-29.833047,0c-4.922453,0 -8.949914,-4.027461 -8.949914,-8.949914l0,-29.833047c0,-4.922453 4.027461,-8.949914 8.949914,-8.949914l29.833047,0c4.922453,0 8.949914,4.027461 8.949914,8.949914l0,29.833047zm202.864722,155.131846c0,4.922453 -4.027461,8.949914 -8.949914,8.949914l-149.165237,0c-4.922453,0 -8.949914,-4.027461 -8.949914,-8.949914l0,-71.599314c0,-4.922453 4.027461,-8.949914 8.949914,-8.949914l149.165237,0c4.922453,0 8.949914,4.027461 8.949914,8.949914l0,71.599314zm0,-125.298799c0,4.922453 -4.027461,8.949914 -8.949914,8.949914l-149.165237,0c-4.922453,0 -8.949914,-4.027461 -8.949914,-8.949914l0,-71.599314c0,-4.922453 4.027461,-8.949914 8.949914,-8.949914l149.165237,0c4.922453,0 8.949914,4.027461 8.949914,8.949914l0,71.599314zm83.532533,113.36558c0,4.922453 -4.027461,8.949914 -8.949914,8.949914l-29.833047,0c-4.922453,0 -8.949914,-4.027461 -8.949914,-8.949914l0,-29.833047c0,-4.922453 4.027461,-8.949914 8.949914,-8.949914l29.833047,0c4.922453,0 8.949914,4.027461 8.949914,8.949914l0,29.833047zm0,-71.599314c0,4.922453 -4.027461,8.949914 -8.949914,8.949914l-29.833047,0c-4.922453,0 -8.949914,-4.027461 -8.949914,-8.949914l0,-29.833047c0,-4.922453 4.027461,-8.949914 8.949914,-8.949914l29.833047,0c4.922453,0 8.949914,4.027461 8.949914,8.949914l0,29.833047zm0,-71.599314c0,4.922453 -4.027461,8.949914 -8.949914,8.949914l-29.833047,0c-4.922453,0 -8.949914,-4.027461 -8.949914,-8.949914l0,-29.833047c0,-4.922453 4.027461,-8.949914 8.949914,-8.949914l29.833047,0c4.922453,0 8.949914,4.027461 8.949914,8.949914l0,29.833047z" fill="currentColor"/>
 </g>
</svg>