<svg width="384" height="512" xmlns="http://www.w3.org/2000/svg">

 <g class="currentLayer">
  <title>Layer 1</title>
  <path stroke="null" id="svg_1" d="m188.937579,92.67986c-54.547319,2.010314 -96.595834,60.520027 -96.595834,127.613462l0,168.43241c0,9.100661 8.94329,13.65099 14.175348,7.217985l12.934811,-11.825752c3.456895,-3.159066 8.304854,-2.546398 11.164838,1.410411l22.293343,30.856725c3.244084,3.988719 8.502095,3.988719 11.746178,0l21.135854,-29.261238c3.30637,-4.575858 9.114577,-4.575858 12.415757,0l21.135854,29.261238c3.244083,3.988719 8.502094,3.988719 11.746178,0l22.293342,-30.856725c2.859985,-3.956809 7.707943,-4.575858 11.164839,-1.410411l12.934811,11.825752c5.232058,6.433005 14.175348,1.876293 14.175348,-7.217985l0,-173.569879c0,-68.925054 -46.28399,-124.556508 -102.720665,-122.475992zm-30.157001,142.898231c-9.171674,0 -16.609709,-9.145333 -16.609709,-20.422239s7.438035,-20.422239 16.609709,-20.422239s16.609709,9.145333 16.609709,20.422239s-7.438036,20.422239 -16.609709,20.422239zm66.438833,0c-9.171674,0 -16.609709,-9.145333 -16.609709,-20.422239s7.438035,-20.422239 16.609709,-20.422239s16.609709,9.145333 16.609709,20.422239s-7.438035,20.422239 -16.609709,20.422239z" fill="#181d21"/>
 </g>
 <g>
  <title>Layer 2</title>
  <rect fill="none" y="0" x="0" height="100%" width="100%" id="backgroundrect"/>
 </g>
 <g>
  <title>background</title>
  <rect fill="none" id="canvas_background" height="402" width="582" y="-1" x="-1"/>
 </g>
</svg>